<svg width="1600" height="420" viewBox="0 0 1600 420" xmlns="http://www.w3.org/2000/svg">
  <defs>
    <linearGradient id="bg" x1="0%" y1="0%" x2="100%" y2="100%">
      <stop offset="0%" stop-color="#030b1f"/>
      <stop offset="50%" stop-color="#061b3d"/>
      <stop offset="100%" stop-color="#041029"/>
    </linearGradient>
    <linearGradient id="glow" x1="0%" y1="0%" x2="100%" y2="0%">
      <stop offset="0%" stop-color="#00f0ff"/>
      <stop offset="50%" stop-color="#16b5ff"/>
      <stop offset="100%" stop-color="#64ffd5"/>
    </linearGradient>
    <filter id="noise" x="-20%" y="-20%" width="140%" height="140%">
      <feTurbulence type="fractalNoise" baseFrequency="0.8" numOctaves="2" result="t"/>
      <feColorMatrix type="matrix" values="0 0 0 0 0  0 0 0 0 0.9  0 0 0 0 0.9  0 0 0 0.3 0"/>
      <feBlend in="SourceGraphic" in2="t" mode="screen"/>
    </filter>
  </defs>
  <rect width="1600" height="420" fill="url(#bg)"/>
  <g stroke="#072348" stroke-width="1">
    <g opacity="0.35">
      <path d="M0 60H1600M0 120H1600M0 180H1600M0 240H1600M0 300H1600M0 360H1600"/>
      <path d="M80 0V420M160 0V420M240 0V420M320 0V420M400 0V420M480 0V420M560 0V420M640 0V420M720 0V420M800 0V420M880 0V420M960 0V420M1040 0V420M1120 0V420M1200 0V420M1280 0V420M1360 0V420M1440 0V420M1520 0V420"/>
    </g>
  </g>
  <g filter="url(#noise)">
    <rect x="80" y="70" width="1440" height="280" rx="26" fill="none" stroke="url(#glow)" stroke-width="3" opacity="0.8"/>
    <rect x="120" y="110" width="1360" height="200" rx="18" fill="rgba(5,15,30,0.6)" stroke="#0b2e52"/>
  </g>
  <text x="145" y="190" fill="#64ffd5" font-size="46" font-family="'Orbitron','Segoe UI',sans-serif" letter-spacing="6">NEBULA SENTINEL</text>
  <text x="145" y="236" fill="#00f0ff" font-size="22" font-family="'Share Tech Mono','Consolas',monospace" letter-spacing="4">QUANTUM SECURITY CORE</text>
  <g opacity="0.8">
    <text x="145" y="290" fill="#889ad9" font-size="16" font-family="'Space Grotesk','Segoe UI',sans-serif">Adaptive AI defense grid • Multi-zone holographic overlays • Cyberpunk telemetry</text>
  </g>
  <g>
    <circle cx="1420" cy="170" r="46" fill="none" stroke="#00f0ff" stroke-width="2"/>
    <circle cx="1420" cy="170" r="30" fill="none" stroke="#ff4dff" stroke-width="2"/>
    <circle cx="1420" cy="170" r="12" fill="#64ffd5"/>
    <line x1="1420" y1="170" x2="1500" y2="120" stroke="#64ffd5" stroke-width="2" stroke-dasharray="6 6"/>
    <animate attributeName="opacity" values="0.3;1;0.3" dur="4s" repeatCount="indefinite"/>
  </g>
  <g>
    <rect x="1240" y="260" width="240" height="80" rx="16" fill="rgba(3,17,42,0.8)" stroke="#00f0ff" stroke-width="1.5"/>
    <text x="1268" y="294" fill="#64ffd5" font-size="16" font-family="'Share Tech Mono',monospace">STATUS</text>
    <text x="1268" y="318" fill="#ffffff" font-size="20" font-family="'Space Grotesk'">ARMED & READY</text>
    <animate attributeName="stroke" values="#00f0ff;#ff4dff;#00f0ff" dur="6s" repeatCount="indefinite"/>
  </g>
</svg>